<?xml version="1.0" encoding="UTF-8" standalone="no"?>
<!-- Created with Inkscape (http://www.inkscape.org/) -->

<svg
   width="640"
   height="320"
   viewBox="0 0 169.3334 84.666912"
   version="1.1"
   id="svg1"
   inkscape:version="1.4.2 (f4327f4, 2025-05-13)"
   sodipodi:docname="LuxuryHubLashesMainLogo.svg"
   xml:space="preserve"
   inkscape:export-filename="C:\KreativeVisualz Business Files\Website Management\LuxuryHub Website\assests\images\LuxuryHubLogo.svg"
   inkscape:export-xdpi="36.576"
   inkscape:export-ydpi="36.576"
   xmlns:inkscape="http://www.inkscape.org/namespaces/inkscape"
   xmlns:sodipodi="http://sodipodi.sourceforge.net/DTD/sodipodi-0.dtd"
   xmlns:xlink="http://www.w3.org/1999/xlink"
   xmlns="http://www.w3.org/2000/svg"
   xmlns:svg="http://www.w3.org/2000/svg"><sodipodi:namedview
     id="namedview1"
     pagecolor="#ffffff"
     bordercolor="#000000"
     borderopacity="0.25"
     inkscape:showpageshadow="2"
     inkscape:pageopacity="0.0"
     inkscape:pagecheckerboard="0"
     inkscape:deskcolor="#d1d1d1"
     inkscape:document-units="mm"
     inkscape:zoom="0.95833333"
     inkscape:cx="360"
     inkscape:cy="180"
     inkscape:window-width="1366"
     inkscape:window-height="745"
     inkscape:window-x="-8"
     inkscape:window-y="-8"
     inkscape:window-maximized="1"
     inkscape:current-layer="layer6"><inkscape:page
       x="0"
       y="0"
       width="169.3334"
       height="84.666908"
       id="page2"
       margin="0"
       bleed="0" /></sodipodi:namedview><defs
     id="defs1"><filter
       style="color-interpolation-filters:sRGB"
       inkscape:label="Drop Shadow"
       id="filter64"
       x="-0.021242167"
       y="-0.13652092"
       width="1.0600118"
       height="1.3575271"><feFlood
         result="flood"
         in="SourceGraphic"
         flood-opacity="1.000000"
         flood-color="rgb(243,43,242)"
         id="feFlood63" /><feGaussianBlur
         result="blur"
         in="SourceGraphic"
         stdDeviation="2.000000"
         id="feGaussianBlur63" /><feOffset
         result="offset"
         in="blur"
         dx="4.000000"
         dy="3.000000"
         id="feOffset63" /><feComposite
         result="comp1"
         operator="in"
         in="offset"
         in2="flood"
         id="feComposite63" /><feComposite
         result="comp2"
         operator="over"
         in="SourceGraphic"
         in2="comp1"
         id="feComposite64" /></filter><filter
       style="color-interpolation-filters:sRGB"
       inkscape:label="Drop Shadow"
       id="filter207"
       x="-0.030599209"
       y="-0.12594139"
       width="1.0821224"
       height="1.2946186"><feFlood
         result="flood"
         in="SourceGraphic"
         flood-opacity="0.501961"
         flood-color="rgb(150,150,150)"
         id="feFlood206" /><feGaussianBlur
         result="blur"
         in="SourceGraphic"
         stdDeviation="3.500000"
         id="feGaussianBlur206" /><feOffset
         result="offset"
         in="blur"
         dx="6.000000"
         dy="3.000000"
         id="feOffset206" /><feComposite
         result="comp1"
         operator="in"
         in="flood"
         in2="offset"
         id="feComposite206" /><feComposite
         result="comp2"
         operator="over"
         in="SourceGraphic"
         in2="comp1"
         id="feComposite207" /></filter><filter
       style="color-interpolation-filters:sRGB"
       inkscape:label="Drop Shadow"
       id="filter209"
       x="-0.020462313"
       y="-0.083034196"
       width="1.0548762"
       height="1.1943755"><feFlood
         result="flood"
         in="SourceGraphic"
         flood-opacity="0.501961"
         flood-color="rgb(150,150,150)"
         id="feFlood207" /><feGaussianBlur
         result="blur"
         in="SourceGraphic"
         stdDeviation="3.500000"
         id="feGaussianBlur207" /><feOffset
         result="offset"
         in="blur"
         dx="6.000000"
         dy="3.000000"
         id="feOffset207" /><feComposite
         result="comp1"
         operator="in"
         in="flood"
         in2="offset"
         id="feComposite208" /><feComposite
         result="comp2"
         operator="over"
         in="SourceGraphic"
         in2="comp1"
         id="feComposite209" /></filter></defs><g
     inkscape:groupmode="layer"
     id="layer5"
     inkscape:label="Colour Palette"
     sodipodi:insensitive="true"
     style="display:none"><image
       width="243.16371"
       height="16.24502"
       preserveAspectRatio="none"
       style="image-rendering:optimizeQuality"
       xlink:href="../../../../Client%20Mangement/LUXURY%20HUB%20LASHES/Projects/Brand%20Design/Resources/LuxuryHub%20Palette.png"
       id="image1-1"
       x="10.633692"
       y="7.4216971" /></g><g
     inkscape:groupmode="layer"
     id="layer6"
     inkscape:label="Reference Images"><image
       width="500"
       height="500"
       preserveAspectRatio="none"
       style="display:none;image-rendering:optimizeQuality"
       xlink:href="../../../../Client%20Mangement/LUXURY%20HUB%20LASHES/Projects/Brand%20Design/Logo/Reference%20Images/lash-logo-desingn-simple-concept-600w-2563842717.png"
       id="image1"
       x="0"
       y="-1.4210855e-14" /><text
       xml:space="preserve"
       style="font-weight:500;font-size:33.6862px;line-height:0.8;font-family:'Hello Paris Sans';-inkscape-font-specification:'Hello Paris Sans Medium';text-align:center;letter-spacing:-1.7436px;word-spacing:0.0473712px;writing-mode:lr-tb;direction:rtl;text-anchor:middle;opacity:1;fill:#bea033;fill-opacity:1;stroke:#debf58;stroke-width:0.0954889;stroke-dasharray:none;stroke-opacity:0.576471;filter:url(#filter64)"
       x="251.61754"
       y="339.94705"
       id="text59"
       transform="matrix(0.38218378,0,0,0.35805274,-5.3132131,-48.114216)"><tspan
         sodipodi:role="line"
         id="tspan59"
         style="letter-spacing:-1.7436px;fill:#bea033;fill-opacity:1;stroke:#debf58;stroke-width:0.0954889;stroke-opacity:0.576471"
         x="250.74574"
         y="339.94705"><tspan
   style="font-size:22.5778px;letter-spacing:-1.7436px;baseline-shift:super"
   id="tspan3">by</tspan> <tspan
   style="font-size:50.8px;letter-spacing:-1.7436px"
   id="tspan2">Luxury Hub</tspan></tspan></text></g><g
     inkscape:label="Logo"
     inkscape:groupmode="layer"
     id="layer1"
     style="stroke:#f8bad3;stroke-opacity:1"><g
       id="g31"
       inkscape:label="Lashes"
       style="fill:#f8bad3;fill-opacity:1;stroke:#bea033;stroke-opacity:1;filter:url(#filter207)"
       transform="matrix(0.36992155,0,0,0.36992155,-12.187861,-48.44158)"><path
         style="font-weight:500;font-size:163.482px;line-height:0.8;font-family:'Hello Paris Sans';-inkscape-font-specification:'Hello Paris Sans Medium';text-align:center;letter-spacing:0.199244px;word-spacing:0.229896px;direction:rtl;text-anchor:middle;opacity:1;fill:#f8bad3;fill-opacity:1;stroke:#bea033;stroke-width:0.642187;stroke-dasharray:none;stroke-opacity:1"
         d="m 250.14544,186.60665 c 35.25358,-1.12893 70.09594,6.86694 105.39102,6.62041 15.70501,-0.1097 31.46981,-1.98564 46.78479,-3.60019 15.18882,-1.60124 58.75585,-5.0595 58.75585,-5.0595 0,0 -47.74499,2.32747 -59.65875,3.08957 -29.2273,1.86959 -68.92861,1.39796 -83.54946,-1.67145 23.96433,-2.63377 49.8262,-8.06647 64.3854,-21.36782 -18.36011,11.16041 -43.84729,15.83948 -68.65264,16.40306 21.30131,-5.65405 40.97779,-15.39416 51.67366,-28.72808 -13.49654,12.52282 -35.30744,20.19782 -58.16085,23.29168 -17.14925,2.9952 7.28424,-5.07583 10.437,-8.66702 11.09787,-6.41564 20.36605,-15.02922 23.14564,-24.35446 -10.14544,13.63477 -27.13379,25.30945 -49.13214,31.08763 -5.29895,1.41049 -24.54179,6.77059 -11.57437,0.96626 16.72201,-8.35612 29.54498,-20.79467 32.73838,-34.1748 -8.65069,16.52324 -30.11845,29.00614 -54.22499,36.23114 12.45346,-10.86082 24.07051,-22.78883 25.18309,-36.70311 h 5e-5 c -5.36534,13.60672 -16.07415,26.6988 -34.21025,34.99726 -8.88972,3.91997 4.45268,-8.27209 3.75385,-11.85703 1.39678,-3.05617 4.5088,-15.94408 1.92166,-13.90005 -2.41177,14.1794 -15.39682,27.00583 -31.39111,36.53402 5.65281,-7.94534 6.5505,-16.84498 5.38962,-25.55171 -2.12258,-8.04011 -1.98675,7.26192 -2.84654,9.71948 -0.79337,5.90019 -9.74837,17.86271 -15.29826,18.15018 0.2481,-6.60296 1.51574,-13.71567 -3.05179,-19.78213 0.26097,6.7735 0.6036,15.31347 -5.8197,21.21905 -2.53637,2.90315 -4.63048,4.52317 -7.21005,6.65942 -4.33622,3.59098 -13.86207,10.32236 -13.86207,10.32236 0,0 26.54146,-12.55331 41.70889,-16.36289 8.66778,-2.17707 18.08153,-3.21371 27.37407,-3.51128 z"
         id="text27"
         sodipodi:nodetypes="aascscccccccccccsccccccccccacaa" /><path
         style="fill:#f8bad3;fill-opacity:1;stroke:#bea033;stroke-width:0.594915;stroke-dasharray:none;stroke-opacity:1"
         d="m 269.69464,191.67562 c -18.8118,-0.96702 -51.26941,-1.40338 -86.39187,17.54159 14.977,-5.29703 59.58053,-10.50307 96.34481,-10.77565 13.22774,-0.0981 25.35891,1.19814 34.89365,1.84731 40.78419,2.77677 25.81788,2.01946 58.36937,2.72088 27.28339,0.5879 88.72457,-11.18927 88.72457,-11.18927 0,0 -62.90135,5.36634 -94.42835,6.70265 -8.75708,0.37118 -17.53567,0.74584 -26.29231,0.36442 -23.83876,-1.03835 -44.25518,-5.58644 -71.21987,-7.21193 z"
         id="path27"
         sodipodi:nodetypes="cccscaacc" /></g><text
       xml:space="preserve"
       style="font-style:normal;font-variant:normal;font-weight:bold;font-stretch:normal;font-size:165.079px;line-height:2;font-family:'Hello Paris Sans';-inkscape-font-specification:'Hello Paris Sans Bold';text-align:start;letter-spacing:0.137566px;word-spacing:1.28968px;writing-mode:lr-tb;direction:rtl;text-anchor:start;display:inline;fill:#f8bad3;fill-opacity:1;stroke:#bea033;stroke-width:0.8;stroke-dasharray:none;stroke-opacity:1;filter:url(#filter209)"
       x="473.61697"
       y="292.0654"
       id="text4"
       transform="matrix(0.36992155,0,0,0.36992155,-8.9142195,-48.114216)"><tspan
         sodipodi:role="line"
         id="tspan4"
         style="font-style:normal;font-variant:normal;font-weight:bold;font-stretch:normal;font-size:165.079px;font-family:'Hello Paris Sans';-inkscape-font-specification:'Hello Paris Sans Bold';fill:#f8bad3;fill-opacity:1;stroke:#bea033;stroke-width:0.8;stroke-dasharray:none;stroke-opacity:1"
         x="473.75455"
         y="292.0654">Lashes</tspan></text></g></svg>
