<?xml version="1.0" encoding="UTF-8" standalone="no"?>
<!-- Created with Inkscape (http://www.inkscape.org/) -->

<svg
   width="900"
   height="429.60376"
   viewBox="0 0 238.1251 113.66632"
   version="1.1"
   id="svg1"
   inkscape:version="1.4.2 (f4327f4, 2025-05-13)"
   sodipodi:docname="LuxuryHubLogoProject.svg"
   xml:space="preserve"
   inkscape:export-filename="LuxuryHubLogoPC.svg"
   inkscape:export-xdpi="96"
   inkscape:export-ydpi="96"
   xmlns:inkscape="http://www.inkscape.org/namespaces/inkscape"
   xmlns:sodipodi="http://sodipodi.sourceforge.net/DTD/sodipodi-0.dtd"
   xmlns:xlink="http://www.w3.org/1999/xlink"
   xmlns="http://www.w3.org/2000/svg"
   xmlns:svg="http://www.w3.org/2000/svg"><sodipodi:namedview
     id="namedview1"
     pagecolor="#ffffff"
     bordercolor="#000000"
     borderopacity="0.25"
     inkscape:showpageshadow="2"
     inkscape:pageopacity="0.0"
     inkscape:pagecheckerboard="0"
     inkscape:deskcolor="#d1d1d1"
     inkscape:document-units="mm"
     inkscape:zoom="0.76666666"
     inkscape:cx="316.30435"
     inkscape:cy="150.65217"
     inkscape:window-width="1366"
     inkscape:window-height="745"
     inkscape:window-x="-8"
     inkscape:window-y="-8"
     inkscape:window-maximized="1"
     inkscape:current-layer="layer6"><inkscape:page
       x="0"
       y="0"
       width="238.12511"
       height="113.66632"
       id="page2"
       margin="0"
       bleed="0" /></sodipodi:namedview><defs
     id="defs1"><filter
       style="color-interpolation-filters:sRGB"
       inkscape:label="Drop Shadow"
       id="filter64"
       x="-0.021242172"
       y="-0.1365208"
       width="1.0600118"
       height="1.3581305"><feFlood
         result="flood"
         in="SourceGraphic"
         flood-opacity="1.000000"
         flood-color="rgb(243,43,242)"
         id="feFlood63" /><feGaussianBlur
         result="blur"
         in="SourceGraphic"
         stdDeviation="2.000000"
         id="feGaussianBlur63" /><feOffset
         result="offset"
         in="blur"
         dx="4.000000"
         dy="3.000000"
         id="feOffset63" /><feComposite
         result="comp1"
         operator="in"
         in="offset"
         in2="flood"
         id="feComposite63" /><feComposite
         result="comp2"
         operator="over"
         in="SourceGraphic"
         in2="comp1"
         id="feComposite64" /></filter><filter
       style="color-interpolation-filters:sRGB"
       inkscape:label="Drop Shadow"
       id="filter207"
       x="-0.030599209"
       y="-0.12594139"
       width="1.0821224"
       height="1.2946186"><feFlood
         result="flood"
         in="SourceGraphic"
         flood-opacity="0.501961"
         flood-color="rgb(150,150,150)"
         id="feFlood206" /><feGaussianBlur
         result="blur"
         in="SourceGraphic"
         stdDeviation="3.500000"
         id="feGaussianBlur206" /><feOffset
         result="offset"
         in="blur"
         dx="6.000000"
         dy="3.000000"
         id="feOffset206" /><feComposite
         result="comp1"
         operator="in"
         in="flood"
         in2="offset"
         id="feComposite206" /><feComposite
         result="comp2"
         operator="over"
         in="SourceGraphic"
         in2="comp1"
         id="feComposite207" /></filter><filter
       style="color-interpolation-filters:sRGB"
       inkscape:label="Drop Shadow"
       id="filter209"
       x="-0.020462332"
       y="-0.083033971"
       width="1.0548763"
       height="1.194375"><feFlood
         result="flood"
         in="SourceGraphic"
         flood-opacity="0.501961"
         flood-color="rgb(150,150,150)"
         id="feFlood207" /><feGaussianBlur
         result="blur"
         in="SourceGraphic"
         stdDeviation="3.500000"
         id="feGaussianBlur207" /><feOffset
         result="offset"
         in="blur"
         dx="6.000000"
         dy="3.000000"
         id="feOffset207" /><feComposite
         result="comp1"
         operator="in"
         in="flood"
         in2="offset"
         id="feComposite208" /><feComposite
         result="comp2"
         operator="over"
         in="SourceGraphic"
         in2="comp1"
         id="feComposite209" /></filter></defs><g
     inkscape:groupmode="layer"
     id="layer5"
     inkscape:label="Colour Palette"
     sodipodi:insensitive="true"
     style="display:none"
     transform="translate(-35.153741,0.36536938)"><image
       width="243.16371"
       height="16.24502"
       preserveAspectRatio="none"
       style="image-rendering:optimizeQuality"
       xlink:href="../../../../Client%20Mangement/LUXURY%20HUB%20LASHES/Projects/Brand%20Design/Resources/LuxuryHub%20Palette.png"
       id="image1-1"
       x="10.633692"
       y="7.4216971" /></g><g
     inkscape:groupmode="layer"
     id="layer6"
     inkscape:label="Reference Images"
     transform="translate(-35.153741,0.36536938)"><image
       width="500"
       height="500"
       preserveAspectRatio="none"
       style="display:none;image-rendering:optimizeQuality"
       xlink:href="../../../../Client%20Mangement/LUXURY%20HUB%20LASHES/Projects/Brand%20Design/Logo/Reference%20Images/lash-logo-desingn-simple-concept-600w-2563842717.png"
       id="image1"
       x="0"
       y="-1.4210855e-14" /><g
       id="text59"
       style="font-weight:500;font-size:33.6862px;line-height:0.8;font-family:'Hello Paris Sans';-inkscape-font-specification:'Hello Paris Sans Medium';text-align:center;letter-spacing:-1.7436px;word-spacing:0.0473712px;direction:rtl;text-anchor:middle;fill:#bea033;stroke:#debf58;stroke-width:0.0954889;stroke-opacity:0.576471;filter:url(#filter64)"
       transform="matrix(0.54187999,0,0,0.50766575,24.453002,-68.74046)"
       aria-label="by Luxury Hub"><path
         style="font-size:22.5778px;baseline-shift:super"
         d="m 145.44702,323.44715 q 0,0.83538 -0.33867,1.4224 -0.31608,0.56444 -0.85795,0.92569 -0.54187,0.36124 -1.24178,0.51929 -0.69991,0.15804 -1.4224,0.15804 h -4.15432 v -11.06312 h 3.38667 q 0.67734,0 1.33209,0.11289 0.67734,0.11289 1.19663,0.42898 0.54186,0.29351 0.88053,0.8128 0.33867,0.49671 0.33867,1.30951 0,0.92569 -0.56445,1.55787 -0.56444,0.6096 -1.4224,0.85796 1.26436,0.15804 2.05458,0.90311 0.8128,0.72249 0.8128,2.05458 z m -6.20889,-2.98027 h 1.08373 q 1.15147,0 1.80622,-0.6096 0.67734,-0.6096 0.67734,-1.78365 0,-1.10631 -0.6096,-1.78365 -0.58702,-0.69991 -1.73849,-0.69991 h -1.2192 z m 0,5.82507 h 1.69333 q 1.35467,0 1.98685,-0.76765 0.65475,-0.79022 0.65475,-2.07715 0,-1.37725 -0.83537,-2.07716 -0.81281,-0.72249 -2.1449,-0.72249 h -1.35466 z m 8.64218,0.18062 v -4.83165 l -3.52214,-6.23147 h 1.94169 l 3.18347,5.77992 3.048,-5.77992 h 0.29351 l -3.13831,5.91538 v 5.14774 z"
         id="path1" /><path
         style="font-size:50.8px"
         d="m 193.02542,344.06185 q -1.6256,1.3208 -3.4544,2.2352 -1.778,0.9144 -3.9624,0.9144 -1.6764,0 -3.0988,-0.5588 -1.3716,-0.508 -2.6924,-1.3208 -1.3208,-0.8128 -2.6416,-1.778 -1.3208,-0.9144 -2.794,-1.7272 -1.4732,-0.8128 -3.2004,-1.3716 -1.6764,-0.508 -3.7592,-0.508 h -2.8956 v -24.892 h 4.0132 v 24.4348 q 2.4892,0.1016 4.826,0.9652 2.3368,0.9144 4.6228,1.9304 2.3368,1.016 4.6228,1.8288 2.3368,0.8128 4.7752,0.8128 1.4732,0 2.794,-0.254 1.3208,-0.2032 2.6416,-0.8636 z m 0.23757,-29.0068 v 16.4084 q 0,4.2672 -2.032,6.5024 -1.9812,2.2352 -6.35,2.2352 -4.572,0 -6.8072,-2.286 -2.1844,-2.3368 -2.1844,-6.858 v -16.002 h 4.1148 v 15.494 q 0,1.6256 0.3556,3.1496 0.3556,1.524 1.1684,2.6924 0.8128,1.1684 2.0828,1.8796 1.3208,0.7112 3.1496,0.7112 1.6764,0 2.8448,-0.6096 1.1684,-0.6604 1.8796,-1.6764 0.7112,-1.0668 1.016,-2.4384 0.3556,-1.3716 0.3556,-2.8448 v -16.3576 z m 5.72396,24.892 8.382,-11.6332 -8.7376,-13.2588 h 4.826 l 6.5532,9.9568 7.2136,-9.9568 h 0.508 l -7.4676,10.3632 9.652,14.5288 h -4.9276 l -7.366,-11.2268 -7.9756,11.2268 z m 42.50322,-24.892 v 16.4084 q 0,4.2672 -2.032,6.5024 -1.9812,2.2352 -6.35,2.2352 -4.572,0 -6.8072,-2.286 -2.1844,-2.3368 -2.1844,-6.858 v -16.002 h 4.1148 v 15.494 q 0,1.6256 0.3556,3.1496 0.3556,1.524 1.1684,2.6924 0.8128,1.1684 2.0828,1.8796 1.3208,0.7112 3.1496,0.7112 1.6764,0 2.8448,-0.6096 1.1684,-0.6604 1.8796,-1.6764 0.7112,-1.0668 1.016,-2.4384 0.3556,-1.3716 0.3556,-2.8448 v -16.3576 z m 5.72405,24.892 v -24.892 h 6.9088 q 1.8288,0 3.6068,0.4064 1.778,0.3556 3.1496,1.27 1.4224,0.8636 2.286,2.3368 0.9144,1.4224 0.9144,3.556 0,2.9972 -1.6764,4.8768 -1.6764,1.8288 -4.4704,2.54 l 4.064,6.9088 q 0.5588,0.8636 1.4732,1.778 0.9144,0.8636 1.9304,1.2192 h -5.8928 l -5.6388,-9.8044 h -2.5908 v 9.8044 z m 4.064,-10.16 h 2.286 q 3.2512,0 4.9276,-2.032 1.6764,-2.032 1.6764,-5.1308 0,-3.302 -1.5748,-5.2324 -1.5748,-1.9304 -5.0292,-1.9304 h -2.286 z m 22.28477,10.16 v -10.8712 l -7.9248,-14.0208 h 4.3688 l 7.1628,13.0048 6.858,-13.0048 h 0.6604 l -7.0612,13.3096 v 11.5824 z m 63.51457,4.318 q 2.2352,0 4.1148,0.3556 1.9304,0.3556 3.6576,1.1176 1.7272,0.762 3.302,1.8796 1.5748,1.1684 3.1496,2.6924 l -0.2032,0.254 q -1.4224,-1.27 -3.3528,-2.0828 -1.9304,-0.8128 -4.0132,-1.2192 -2.0828,-0.4064 -4.2164,-0.5588 -2.1336,-0.1524 -4.0132,-0.1524 -3.2004,0 -6.4008,0.3556 -3.2004,0.4064 -6.35,0.8128 -3.1496,0.4572 -6.35,0.8128 -3.2004,0.4064 -6.4008,0.4064 -2.6924,0 -5.334,-0.762 -2.5908,-0.762 -4.6736,-2.286 -2.032,-1.4732 -3.302,-3.7592 -1.27,-2.2352 -1.27,-5.2324 0,-3.7592 1.9812,-6.7564 1.9812,-2.9972 5.4864,-4.3688 v -10.7188 h 4.0132 v 9.7536 q 0.9144,-0.1524 1.778,-0.1524 2.3876,0 4.7752,0.9652 2.3876,0.9144 4.1148,2.54 v -13.1064 h 4.0132 v 24.892 h -4.0132 v -11.2268 q -1.7272,-1.5748 -3.9116,-2.4892 -2.1844,-0.9144 -4.5212,-0.9144 -0.5588,0 -1.1176,0 -0.5588,0 -1.1176,0.1016 v 14.5288 h -4.0132 v -13.3604 q -1.5748,0.8128 -2.6416,1.9812 -1.0668,1.1684 -1.7272,2.5908 -0.6604,1.3716 -0.9144,2.9972 -0.3048,1.5748 -0.3048,3.2512 0,2.794 1.1176,4.8768 1.0668,2.0828 2.8956,3.4544 1.8288,1.4224 4.2164,2.0828 2.3876,0.7112 4.9276,0.7112 3.4036,0 6.7056,-0.6604 3.302,-0.6604 6.604,-1.4732 3.302,-0.8128 6.604,-1.4732 3.302,-0.6604 6.7056,-0.6604 z m 5.62238,-29.21 v 16.4084 q 0,4.2672 -2.032,6.5024 -1.9812,2.2352 -6.35,2.2352 -4.572,0 -6.8072,-2.286 -2.1844,-2.3368 -2.1844,-6.858 v -16.002 h 4.1148 v 15.494 q 0,1.6256 0.3556,3.1496 0.3556,1.524 1.1684,2.6924 0.8128,1.1684 2.0828,1.8796 1.3208,0.7112 3.1496,0.7112 1.6764,0 2.8448,-0.6096 1.1684,-0.6604 1.8796,-1.6764 0.7112,-1.0668 1.016,-2.4384 0.3556,-1.3716 0.3556,-2.8448 v -16.3576 z m 22.94518,18.0848 q 0,1.8796 -0.762,3.2004 -0.7112,1.27 -1.9304,2.0828 -1.2192,0.8128 -2.794,1.1684 -1.5748,0.3556 -3.2004,0.3556 h -9.3472 v -24.892 h 7.62 q 1.524,0 2.9972,0.254 1.524,0.254 2.6924,0.9652 1.2192,0.6604 1.9812,1.8288 0.762,1.1176 0.762,2.9464 0,2.0828 -1.27,3.5052 -1.27,1.3716 -3.2004,1.9304 2.8448,0.3556 4.6228,2.032 1.8288,1.6256 1.8288,4.6228 z m -13.97,-6.7056 h 2.4384 q 2.5908,0 4.064,-1.3716 1.524,-1.3716 1.524,-4.0132 0,-2.4892 -1.3716,-4.0132 -1.3208,-1.5748 -3.9116,-1.5748 h -2.7432 z m 0,13.1064 h 3.81 q 3.048,0 4.4704,-1.7272 1.4732,-1.778 1.4732,-4.6736 0,-3.0988 -1.8796,-4.6736 -1.8288,-1.6256 -4.826,-1.6256 h -3.048 z"
         id="path2" /></g></g><g
     inkscape:label="Logo"
     inkscape:groupmode="layer"
     id="layer1"
     style="stroke:#f8bad3;stroke-opacity:1"
     transform="translate(-35.153741,0.36536938)"><g
       id="g31"
       inkscape:label="Lashes"
       style="fill:#f8bad3;fill-opacity:1;stroke:#bea033;stroke-opacity:1;filter:url(#filter207)"
       transform="matrix(0.52449397,0,0,0.52449397,14.70577,-69.204613)"><path
         style="font-weight:500;font-size:163.482px;line-height:0.8;font-family:'Hello Paris Sans';-inkscape-font-specification:'Hello Paris Sans Medium';text-align:center;letter-spacing:0.199244px;word-spacing:0.229896px;direction:rtl;text-anchor:middle;opacity:1;fill:#f8bad3;fill-opacity:1;stroke:#bea033;stroke-width:0.642187;stroke-dasharray:none;stroke-opacity:1"
         d="m 250.14544,186.60665 c 35.25358,-1.12893 70.09594,6.86694 105.39102,6.62041 15.70501,-0.1097 31.46981,-1.98564 46.78479,-3.60019 15.18882,-1.60124 58.75585,-5.0595 58.75585,-5.0595 0,0 -47.74499,2.32747 -59.65875,3.08957 -29.2273,1.86959 -68.92861,1.39796 -83.54946,-1.67145 23.96433,-2.63377 49.8262,-8.06647 64.3854,-21.36782 -18.36011,11.16041 -43.84729,15.83948 -68.65264,16.40306 21.30131,-5.65405 40.97779,-15.39416 51.67366,-28.72808 -13.49654,12.52282 -35.30744,20.19782 -58.16085,23.29168 -17.14925,2.9952 7.28424,-5.07583 10.437,-8.66702 11.09787,-6.41564 20.36605,-15.02922 23.14564,-24.35446 -10.14544,13.63477 -27.13379,25.30945 -49.13214,31.08763 -5.29895,1.41049 -24.54179,6.77059 -11.57437,0.96626 16.72201,-8.35612 29.54498,-20.79467 32.73838,-34.1748 -8.65069,16.52324 -30.11845,29.00614 -54.22499,36.23114 12.45346,-10.86082 24.07051,-22.78883 25.18309,-36.70311 h 5e-5 c -5.36534,13.60672 -16.07415,26.6988 -34.21025,34.99726 -8.88972,3.91997 4.45268,-8.27209 3.75385,-11.85703 1.39678,-3.05617 4.5088,-15.94408 1.92166,-13.90005 -2.41177,14.1794 -15.39682,27.00583 -31.39111,36.53402 5.65281,-7.94534 6.5505,-16.84498 5.38962,-25.55171 -2.12258,-8.04011 -1.98675,7.26192 -2.84654,9.71948 -0.79337,5.90019 -9.74837,17.86271 -15.29826,18.15018 0.2481,-6.60296 1.51574,-13.71567 -3.05179,-19.78213 0.26097,6.7735 0.6036,15.31347 -5.8197,21.21905 -2.53637,2.90315 -4.63048,4.52317 -7.21005,6.65942 -4.33622,3.59098 -13.86207,10.32236 -13.86207,10.32236 0,0 26.54146,-12.55331 41.70889,-16.36289 8.66778,-2.17707 18.08153,-3.21371 27.37407,-3.51128 z"
         id="text27"
         sodipodi:nodetypes="aascscccccccccccsccccccccccacaa" /><path
         style="fill:#f8bad3;fill-opacity:1;stroke:#bea033;stroke-width:0.594915;stroke-dasharray:none;stroke-opacity:1"
         d="m 269.69464,191.67562 c -18.8118,-0.96702 -51.26941,-1.40338 -86.39187,17.54159 14.977,-5.29703 59.58053,-10.50307 96.34481,-10.77565 13.22774,-0.0981 25.35891,1.19814 34.89365,1.84731 40.78419,2.77677 25.81788,2.01946 58.36937,2.72088 27.28339,0.5879 88.72457,-11.18927 88.72457,-11.18927 0,0 -62.90135,5.36634 -94.42835,6.70265 -8.75708,0.37118 -17.53567,0.74584 -26.29231,0.36442 -23.83876,-1.03835 -44.25518,-5.58644 -71.21987,-7.21193 z"
         id="path27"
         sodipodi:nodetypes="cccscaacc" /></g><path
       d="m 133.03119,304.11617 q -5.11745,4.95237 -11.22537,8.08887 -5.94284,3.30158 -13.20632,3.30158 -5.28253,0 -9.73966,-1.81587 -4.457133,-1.65079 -8.749187,-4.29206 -4.126975,-2.64126 -8.25395,-5.61268 -4.126975,-2.97142 -8.914266,-5.61269 -4.787291,-2.64126 -10.399976,-4.45713 -5.612686,-1.65079 -12.711083,-1.65079 H 38.936164 v -80.88871 h 16.342821 v 79.403 q 7.758713,0.49524 15.022188,3.1365 7.428555,2.64126 14.692031,5.61268 7.263476,2.97143 14.526951,5.44761 7.263475,2.47619 14.857115,2.47619 4.78729,0 9.24442,-0.99048 4.62221,-0.82539 8.91426,-2.80634 z M 85.130844,292.0654 117.81649,210.18622 152.15292,292.0654 H 134.15931 L 122.10854,262.84642 H 98.007006 L 86.286397,292.0654 Z m 13.371399,-30.53961 h 22.945977 l -11.72061,-27.89835 z m 129.394217,8.25394 q 0,6.60316 -2.31111,11.0603 -2.14603,4.45713 -6.10792,7.26347 -3.79682,2.64127 -9.07935,3.79682 -5.11745,1.15555 -11.06029,1.15555 -3.46666,0 -7.59363,-0.99047 -4.12698,-0.8254 -8.41903,-2.14603 -4.12698,-1.32063 -8.25395,-3.1365 -3.9619,-1.81587 -7.26348,-3.46666 v -8.41903 q 1.48571,4.45714 5.11745,7.59364 3.63174,3.1365 8.08887,5.11745 4.62221,1.98094 9.57458,2.97142 5.11745,0.82539 9.24443,0.82539 2.97142,0 6.10792,-0.66031 3.1365,-0.8254 5.61269,-2.31111 2.64126,-1.65079 4.29205,-4.12697 1.65079,-2.47619 1.65079,-5.94285 0,-4.62221 -3.63174,-7.59363 -3.63174,-3.1365 -9.07934,-5.61269 -5.44761,-2.47618 -11.72061,-4.95237 -6.273,-2.47618 -11.72061,-6.10792 -5.44761,-3.63174 -9.07935,-8.91427 -3.63173,-5.28252 -3.63173,-13.37139 0,-5.28253 2.3111,-9.40951 2.47619,-4.12697 6.273,-6.93331 3.79682,-2.97143 8.58411,-4.45714 4.78729,-1.48571 9.57458,-1.48571 3.46666,0 6.43808,0.49524 2.97143,0.33016 5.94285,1.32063 2.97142,0.99047 6.273,2.64126 3.46666,1.48572 7.92379,3.79682 l -0.66031,5.61269 q -5.44761,-6.93332 -12.71109,-9.73966 -7.09839,-2.97143 -13.53647,-2.97143 -2.97143,0 -5.77777,0.8254 -2.80634,0.82539 -5.11745,2.47618 -2.14602,1.48572 -3.63174,3.9619 -1.32063,2.47619 -1.32063,5.77777 0,4.95237 3.63174,8.41902 3.63174,3.30158 8.91427,6.10793 5.4476,2.80634 11.7206,5.61268 6.43809,2.64127 11.72061,6.10793 5.44761,3.46665 9.07935,8.25395 3.63174,4.62221 3.63174,11.55552 z m 17.63604,22.28567 v -80.88871 h 16.34282 v 38.79357 h 30.70469 v -38.79357 h 16.5079 v 80.88871 h -16.5079 v -40.77451 h -30.70469 v 40.77451 z m 146.39769,-1.32063 v 1.32063 h -57.11733 v -80.88871 h 54.14591 v 1.32063 h -37.80309 v 37.80309 h 21.13011 v 1.32064 h -21.13011 v 39.12372 z m 77.06449,-20.96504 q 0,6.60316 -2.31111,11.0603 -2.14603,4.45713 -6.10792,7.26347 -3.79682,2.64127 -9.07935,3.79682 -5.11745,1.15555 -11.06029,1.15555 -3.46666,0 -7.59363,-0.99047 -4.12698,-0.8254 -8.41903,-2.14603 -4.12698,-1.32063 -8.25395,-3.1365 -3.9619,-1.81587 -7.26348,-3.46666 v -8.41903 q 1.48571,4.45714 5.11745,7.59364 3.63174,3.1365 8.08887,5.11745 4.62221,1.98094 9.57458,2.97142 5.11745,0.82539 9.24443,0.82539 2.97142,0 6.10792,-0.66031 3.1365,-0.8254 5.61269,-2.31111 2.64126,-1.65079 4.29205,-4.12697 1.65079,-2.47619 1.65079,-5.94285 0,-4.62221 -3.63174,-7.59363 -3.63174,-3.1365 -9.07934,-5.61269 -5.44761,-2.47618 -11.72061,-4.95237 -6.273,-2.47618 -11.72061,-6.10792 -5.44761,-3.63174 -9.07934,-8.91427 -3.63174,-5.28252 -3.63174,-13.37139 0,-5.28253 2.3111,-9.40951 2.47619,-4.12697 6.27301,-6.93331 3.79681,-2.97143 8.5841,-4.45714 4.78729,-1.48571 9.57458,-1.48571 3.46666,0 6.43809,0.49524 2.97142,0.33016 5.94284,1.32063 2.97142,0.99047 6.273,2.64126 3.46666,1.48572 7.92379,3.79682 l -0.66031,5.61269 q -5.44761,-6.93332 -12.71109,-9.73966 -7.09839,-2.97143 -13.53647,-2.97143 -2.97142,0 -5.77777,0.8254 -2.80634,0.82539 -5.11745,2.47618 -2.14602,1.48572 -3.63173,3.9619 -1.32064,2.47619 -1.32064,5.77777 0,4.95237 3.63174,8.41902 3.63174,3.30158 8.91427,6.10793 5.4476,2.80634 11.72061,5.61268 6.43808,2.64127 11.7206,6.10793 5.44761,3.46665 9.07935,8.25395 3.63174,4.62221 3.63174,11.55552 z"
       id="text4"
       style="font-weight:bold;font-size:165.079px;line-height:2;font-family:'Hello Paris Sans';-inkscape-font-specification:'Hello Paris Sans Bold';letter-spacing:0.137566px;word-spacing:1.28968px;direction:rtl;fill:#f8bad3;stroke:#bea033;stroke-width:0.8;filter:url(#filter209)"
       transform="matrix(0.52449397,0,0,0.52449397,19.347309,-68.74046)"
       aria-label="Lashes" /></g></svg>
